<svg width="372" height="139" viewBox="0 0 372 139" fill="none" xmlns="http://www.w3.org/2000/svg">
<path d="M45.1953 54H34.6484L14.1172 20.3203V54H3.57031V2.8125H14.1172L34.6836 36.5625V2.8125H45.1953V54ZM75.7812 54C75.3125 53.0859 74.9727 51.9492 74.7617 50.5898C72.3008 53.332 69.1016 54.7031 65.1641 54.7031C61.4375 54.7031 58.3438 53.625 55.8828 51.4688C53.4453 49.3125 52.2266 46.5938 52.2266 43.3125C52.2266 39.2812 53.7148 36.1875 56.6914 34.0312C59.6914 31.875 64.0156 30.7852 69.6641 30.7617H74.3398V28.582C74.3398 26.8242 73.8828 25.418 72.9688 24.3633C72.0781 23.3086 70.6602 22.7812 68.7148 22.7812C67.0039 22.7812 65.6562 23.1914 64.6719 24.0117C63.7109 24.832 63.2305 25.957 63.2305 27.3867H53.0703C53.0703 25.1836 53.75 23.1445 55.1094 21.2695C56.4688 19.3945 58.3906 17.9297 60.875 16.875C63.3594 15.7969 66.1484 15.2578 69.2422 15.2578C73.9297 15.2578 77.6445 16.4414 80.3867 18.8086C83.1523 21.1523 84.5352 24.457 84.5352 28.7227V45.2109C84.5586 48.8203 85.0625 51.5508 86.0469 53.4023V54H75.7812ZM67.3789 46.9336C68.8789 46.9336 70.2617 46.6055 71.5273 45.9492C72.793 45.2695 73.7305 44.3672 74.3398 43.2422V36.7031H70.543C65.457 36.7031 62.75 38.4609 62.4219 41.9766L62.3867 42.5742C62.3867 43.8398 62.832 44.8828 63.7227 45.7031C64.6133 46.5234 65.832 46.9336 67.3789 46.9336ZM104.504 6.60938V15.9609H111.008V23.4141H104.504V42.3984C104.504 43.8047 104.773 44.8125 105.312 45.4219C105.852 46.0312 106.883 46.3359 108.406 46.3359C109.531 46.3359 110.527 46.2539 111.395 46.0898V53.7891C109.402 54.3984 107.352 54.7031 105.242 54.7031C98.1172 54.7031 94.4844 51.1055 94.3438 43.9102V23.4141H88.7891V15.9609H94.3438V6.60938H104.504ZM127.391 54H117.195V15.9609H127.391V54ZM116.598 6.11719C116.598 4.59375 117.102 3.33984 118.109 2.35547C119.141 1.37109 120.535 0.878906 122.293 0.878906C124.027 0.878906 125.41 1.37109 126.441 2.35547C127.473 3.33984 127.988 4.59375 127.988 6.11719C127.988 7.66406 127.461 8.92969 126.406 9.91406C125.375 10.8984 124.004 11.3906 122.293 11.3906C120.582 11.3906 119.199 10.8984 118.145 9.91406C117.113 8.92969 116.598 7.66406 116.598 6.11719ZM150.031 41.5898L157.098 15.9609H167.715L154.883 54H145.18L132.348 15.9609H142.965L150.031 41.5898ZM189.23 54.7031C183.652 54.7031 179.105 52.9922 175.59 49.5703C172.098 46.1484 170.352 41.5898 170.352 35.8945V34.9102C170.352 31.0898 171.09 27.6797 172.566 24.6797C174.043 21.6562 176.129 19.3359 178.824 17.7188C181.543 16.0781 184.637 15.2578 188.105 15.2578C193.309 15.2578 197.398 16.8984 200.375 20.1797C203.375 23.4609 204.875 28.1133 204.875 34.1367V38.2852H180.652C180.98 40.7695 181.965 42.7617 183.605 44.2617C185.27 45.7617 187.367 46.5117 189.898 46.5117C193.812 46.5117 196.871 45.0938 199.074 42.2578L204.066 47.8477C202.543 50.0039 200.48 51.6914 197.879 52.9102C195.277 54.1055 192.395 54.7031 189.23 54.7031ZM188.07 23.4844C186.055 23.4844 184.414 24.1641 183.148 25.5234C181.906 26.8828 181.109 28.8281 180.758 31.3594H194.891V30.5508C194.844 28.3008 194.234 26.5664 193.062 25.3477C191.891 24.1055 190.227 23.4844 188.07 23.4844ZM231.277 43.4883C231.277 42.2461 230.656 41.2734 229.414 40.5703C228.195 39.8438 226.227 39.1992 223.508 38.6367C214.461 36.7383 209.938 32.8945 209.938 27.1055C209.938 23.7305 211.332 20.918 214.121 18.668C216.934 16.3945 220.602 15.2578 225.125 15.2578C229.953 15.2578 233.809 16.3945 236.691 18.668C239.598 20.9414 241.051 23.8945 241.051 27.5273H230.891C230.891 26.0742 230.422 24.8789 229.484 23.9414C228.547 22.9805 227.082 22.5 225.09 22.5C223.379 22.5 222.055 22.8867 221.117 23.6602C220.18 24.4336 219.711 25.418 219.711 26.6133C219.711 27.7383 220.238 28.6523 221.293 29.3555C222.371 30.0352 224.176 30.6328 226.707 31.1484C229.238 31.6406 231.371 32.2031 233.105 32.8359C238.473 34.8047 241.156 38.2148 241.156 43.0664C241.156 46.5352 239.668 49.3477 236.691 51.5039C233.715 53.6367 229.871 54.7031 225.16 54.7031C221.973 54.7031 219.137 54.1406 216.652 53.0156C214.191 51.8672 212.258 50.3086 210.852 48.3398C209.445 46.3477 208.742 44.2031 208.742 41.9062H218.375C218.469 43.7109 219.137 45.0938 220.379 46.0547C221.621 47.0156 223.285 47.4961 225.371 47.4961C227.316 47.4961 228.781 47.1328 229.766 46.4062C230.773 45.6562 231.277 44.6836 231.277 43.4883ZM277.543 54H266.996V2.8125H277.543V54ZM296.035 15.9609L296.352 20.3555C299.07 16.957 302.715 15.2578 307.285 15.2578C311.316 15.2578 314.316 16.4414 316.285 18.8086C318.254 21.1758 319.262 24.7148 319.309 29.4258V54H309.148V29.6719C309.148 27.5156 308.68 25.957 307.742 24.9961C306.805 24.0117 305.246 23.5195 303.066 23.5195C300.207 23.5195 298.062 24.7383 296.633 27.1758V54H286.473V15.9609H296.035ZM42.1016 95.3555H26.4219V138H15.875V95.3555H0.40625V86.8125H42.1016V95.3555ZM61.8242 138.703C56.2461 138.703 51.6992 136.992 48.1836 133.57C44.6914 130.148 42.9453 125.59 42.9453 119.895V118.91C42.9453 115.09 43.6836 111.68 45.1602 108.68C46.6367 105.656 48.7227 103.336 51.418 101.719C54.1367 100.078 57.2305 99.2578 60.6992 99.2578C65.9023 99.2578 69.9922 100.898 72.9688 104.18C75.9688 107.461 77.4688 112.113 77.4688 118.137V122.285H53.2461C53.5742 124.77 54.5586 126.762 56.1992 128.262C57.8633 129.762 59.9609 130.512 62.4922 130.512C66.4062 130.512 69.4648 129.094 71.668 126.258L76.6602 131.848C75.1367 134.004 73.0742 135.691 70.4727 136.91C67.8711 138.105 64.9883 138.703 61.8242 138.703ZM60.6641 107.484C58.6484 107.484 57.0078 108.164 55.7422 109.523C54.5 110.883 53.7031 112.828 53.3516 115.359H67.4844V114.551C67.4375 112.301 66.8281 110.566 65.6562 109.348C64.4844 108.105 62.8203 107.484 60.6641 107.484ZM99.0898 130.512C100.965 130.512 102.488 129.996 103.66 128.965C104.832 127.934 105.441 126.562 105.488 124.852H115.016C114.992 127.43 114.289 129.797 112.906 131.953C111.523 134.086 109.625 135.75 107.211 136.945C104.82 138.117 102.172 138.703 99.2656 138.703C93.8281 138.703 89.5391 136.98 86.3984 133.535C83.2578 130.066 81.6875 125.285 81.6875 119.191V118.523C81.6875 112.664 83.2461 107.988 86.3633 104.496C89.4805 101.004 93.7578 99.2578 99.1953 99.2578C103.953 99.2578 107.762 100.617 110.621 103.336C113.504 106.031 114.969 109.629 115.016 114.129H105.488C105.441 112.16 104.832 110.566 103.66 109.348C102.488 108.105 100.941 107.484 99.0195 107.484C96.6523 107.484 94.8594 108.352 93.6406 110.086C92.4453 111.797 91.8477 114.586 91.8477 118.453V119.508C91.8477 123.422 92.4453 126.234 93.6406 127.945C94.8359 129.656 96.6523 130.512 99.0898 130.512ZM130.73 104.109C133.426 100.875 136.812 99.2578 140.891 99.2578C149.141 99.2578 153.324 104.051 153.441 113.637V138H143.281V113.918C143.281 111.738 142.812 110.133 141.875 109.102C140.938 108.047 139.379 107.52 137.199 107.52C134.223 107.52 132.066 108.668 130.73 110.965V138H120.57V84H130.73V104.109ZM216.125 95.3555H200.445V138H189.898V95.3555H174.43V86.8125H216.125V95.3555ZM237.641 138C237.172 137.086 236.832 135.949 236.621 134.59C234.16 137.332 230.961 138.703 227.023 138.703C223.297 138.703 220.203 137.625 217.742 135.469C215.305 133.312 214.086 130.594 214.086 127.312C214.086 123.281 215.574 120.188 218.551 118.031C221.551 115.875 225.875 114.785 231.523 114.762H236.199V112.582C236.199 110.824 235.742 109.418 234.828 108.363C233.938 107.309 232.52 106.781 230.574 106.781C228.863 106.781 227.516 107.191 226.531 108.012C225.57 108.832 225.09 109.957 225.09 111.387H214.93C214.93 109.184 215.609 107.145 216.969 105.27C218.328 103.395 220.25 101.93 222.734 100.875C225.219 99.7969 228.008 99.2578 231.102 99.2578C235.789 99.2578 239.504 100.441 242.246 102.809C245.012 105.152 246.395 108.457 246.395 112.723V129.211C246.418 132.82 246.922 135.551 247.906 137.402V138H237.641ZM229.238 130.934C230.738 130.934 232.121 130.605 233.387 129.949C234.652 129.27 235.59 128.367 236.199 127.242V120.703H232.402C227.316 120.703 224.609 122.461 224.281 125.977L224.246 126.574C224.246 127.84 224.691 128.883 225.582 129.703C226.473 130.523 227.691 130.934 229.238 130.934ZM264.922 138H254.727V84H264.922V138ZM290.832 138.703C285.254 138.703 280.707 136.992 277.191 133.57C273.699 130.148 271.953 125.59 271.953 119.895V118.91C271.953 115.09 272.691 111.68 274.168 108.68C275.645 105.656 277.73 103.336 280.426 101.719C283.145 100.078 286.238 99.2578 289.707 99.2578C294.91 99.2578 299 100.898 301.977 104.18C304.977 107.461 306.477 112.113 306.477 118.137V122.285H282.254C282.582 124.77 283.566 126.762 285.207 128.262C286.871 129.762 288.969 130.512 291.5 130.512C295.414 130.512 298.473 129.094 300.676 126.258L305.668 131.848C304.145 134.004 302.082 135.691 299.48 136.91C296.879 138.105 293.996 138.703 290.832 138.703ZM289.672 107.484C287.656 107.484 286.016 108.164 284.75 109.523C283.508 110.883 282.711 112.828 282.359 115.359H296.492V114.551C296.445 112.301 295.836 110.566 294.664 109.348C293.492 108.105 291.828 107.484 289.672 107.484ZM321.629 99.9609L321.945 104.355C324.664 100.957 328.309 99.2578 332.879 99.2578C336.91 99.2578 339.91 100.441 341.879 102.809C343.848 105.176 344.855 108.715 344.902 113.426V138H334.742V113.672C334.742 111.516 334.273 109.957 333.336 108.996C332.398 108.012 330.84 107.52 328.66 107.52C325.801 107.52 323.656 108.738 322.227 111.176V138H312.066V99.9609H321.629ZM364.801 90.6094V99.9609H371.305V107.414H364.801V126.398C364.801 127.805 365.07 128.812 365.609 129.422C366.148 130.031 367.18 130.336 368.703 130.336C369.828 130.336 370.824 130.254 371.691 130.09V137.789C369.699 138.398 367.648 138.703 365.539 138.703C358.414 138.703 354.781 135.105 354.641 127.91V107.414H349.086V99.9609H354.641V90.6094H364.801Z" fill="black"/>
</svg>
